<svg xmlns="http://www.w3.org/2000/svg" viewBox="0 0 10910 3117" width="10910" height="3117">
	<defs>
		<clipPath clipPathUnits="userSpaceOnUse" id="cp1">
			<path d="M0 0L10910 0L10910 3117L0 3117Z" />
		</clipPath>
		<radialGradient id="grd1" gradientUnits="userSpaceOnUse"  cx="1598.975" cy="2816.16" r="398.651">
			<stop offset="0" stop-color="#436319"  />
			<stop offset="1" stop-color="#547b24"  />
		</radialGradient>
		<radialGradient id="grd2" gradientUnits="userSpaceOnUse"  cx="865.428" cy="2512.411" r="442.352">
			<stop offset="0" stop-color="#436319"  />
			<stop offset="1" stop-color="#547b24"  />
		</radialGradient>
		<radialGradient id="grd3" gradientUnits="userSpaceOnUse"  cx="474.49" cy="1816.427" r="452.136">
			<stop offset="0" stop-color="#436319"  />
			<stop offset="1" stop-color="#547b24"  />
		</radialGradient>
		<radialGradient id="grd4" gradientUnits="userSpaceOnUse"  cx="502.258" cy="1203.25" r="472.596">
			<stop offset="0" stop-color="#436319"  />
			<stop offset="1" stop-color="#547b24"  />
		</radialGradient>
		<radialGradient id="grd5" gradientUnits="userSpaceOnUse"  cx="682.856" cy="409.048" r="460.99">
			<stop offset="0" stop-color="#436319"  />
			<stop offset="1" stop-color="#547b24"  />
		</radialGradient>
		<radialGradient id="grd6" gradientUnits="userSpaceOnUse"  cx="2865.438" cy="1252.951" r="2773.771">
			<stop offset="0" stop-color="#87c846"  />
			<stop offset="1" stop-color="#699b33"  />
		</radialGradient>
		<radialGradient id="grd7" gradientUnits="userSpaceOnUse"  cx="2865.458" cy="1272.347" r="2773.792">
			<stop offset="0" stop-color="#87c846"  />
			<stop offset="1" stop-color="#699b33"  />
		</radialGradient>
		<radialGradient id="grd8" gradientUnits="userSpaceOnUse"  cx="2865.438" cy="1249.357" r="2773.771">
			<stop offset="0" stop-color="#87c846"  />
			<stop offset="1" stop-color="#699b33"  />
		</radialGradient>
		<radialGradient id="grd9" gradientUnits="userSpaceOnUse"  cx="2863.734" cy="1226.982" r="2759.401">
			<stop offset="0" stop-color="#87c846"  />
			<stop offset="1" stop-color="#699b33"  />
		</radialGradient>
		<radialGradient id="grd10" gradientUnits="userSpaceOnUse"  cx="2850.242" cy="1208.382" r="2727.25">
			<stop offset="0" stop-color="#87c846"  />
			<stop offset="1" stop-color="#699b33"  />
		</radialGradient>
	</defs>
	<style>
		tspan { white-space:pre }
		.shp0 { fill: url(#grd1) } 
		.shp1 { fill: url(#grd2) } 
		.shp2 { fill: url(#grd3) } 
		.shp3 { fill: url(#grd4) } 
		.shp4 { fill: url(#grd5) } 
		.shp5 { fill: url(#grd6) } 
		.shp6 { fill: url(#grd7) } 
		.shp7 { fill: url(#grd8) } 
		.shp8 { fill: url(#grd9) } 
		.shp9 { fill: url(#grd10) } 
		.shp10 { fill: #ffffff } 
	</style>
	<g id="Page 1" clip-path="url(#cp1)">
		<path id="Path 1" class="shp0" d="M1677.47 2576.5C1535.4 2643.02 1463.6 2688.73 1429.69 2717.15C1427.83 2698.58 1414.15 2673.69 1374.6 2643.75C1342.17 2619.17 1326.79 2589.75 1321.87 2557.87C949.25 2798.1 903.26 3015.44 1165.68 3056.06C1231.57 3066.25 1268.53 3061.81 1360.86 3050.48C1492.07 2943.23 1829.23 2754.71 2109.71 2639.42C1972.75 2550.5 1822.88 2508.46 1677.47 2576.5Z" />
		<path id="Path 2" class="shp1" d="M1251.88 2250.15C1290.39 2228.21 1329.79 2206.79 1369.84 2185.83C1356.81 2179.81 1339.85 2175.6 1317.72 2173.75C1250.49 2168.15 1158.06 2151.17 1062.46 2127.15C941.28 2096.73 495.66 2191.27 429.52 2270.65C334.69 2384.46 310.38 2480.31 363.96 2544.98C392.16 2578.48 450.89 2648.19 543 2728.29C637.16 2810.15 724.42 2864.85 748.91 2879.71C582.53 2777.02 775.53 2521.37 1251.88 2250.15Z" />
		<path id="Path 3" class="shp2" d="M874.29 1624.6C875.67 1623.81 877.11 1623.05 878.49 1622.27C865.24 1612.19 849.2 1601.52 829.59 1590.03C692.48 1509.61 609.15 1407.21 604.63 1303.05C211.24 1544.78 11.56 1769.7 45.19 1908.47C53.6 1942.67 60.96 1968.81 65.64 1984.7C70.99 2002.89 77.02 2020.89 82.69 2038.99C84.82 2045.53 88.01 2054.12 90.13 2060.64C92.12 2067.24 95.31 2075.88 97.86 2082.27C102.17 2092.96 106 2103.88 110.17 2114.6C112.96 2121.77 115.88 2128.94 118.8 2136.06C129.89 2163.08 141.27 2188.13 141.64 2188.9C144.73 2195.02 148.99 2203.19 151.28 2209.65C151.58 2210.46 171.14 2251.79 192.45 2290.62C199.66 2303.73 207.16 2316.73 214.53 2329.79C129.74 2184 370.38 1911.54 874.29 1624.6Z" />
		<path id="Path 4" class="shp3" d="M657.04 1020.43C766.95 957.85 882.92 898.6 1001.75 843.42C1029.63 797.3 1012.22 761.39 910.6 740.38C758.54 708.92 501.14 792.2 397 776.81C195.12 915.63 75.68 1043.84 50.49 1141.04C39.78 1183.69 17.56 1272.35 6.57 1393.03C-4.56 1515.29 1.17 1613.19 4.17 1649.59C-6.61 1501.45 225.02 1266.45 657.04 1020.43Z" />
		<path id="Path 5" class="shp4" d="M381.13 663.88C398.29 637.1 434.39 637.01 460.02 591.6C606.03 332.81 994.92 82.18 1192.02 1.9C1176 6.04 1158.1 10.91 1135.79 17.28C1103.42 26.53 1047.41 44.98 1000.95 63.62C965.15 78.01 870.02 116.21 760.93 182.9C717.95 209.16 682.76 232.75 643.3 261.75C602.85 291.44 556.29 330.05 538.2 346.48C487.07 393 467.93 410.41 416.52 465.85C377.41 508.02 343.57 551.61 321.18 580.48C297.61 610.86 236.02 694.65 173.69 816.2C203.89 757 281.86 727.64 381.13 663.88Z" />
		<path id="Path 6" class="shp5" d="M1134.27 3044.98C1106.68 3041.31 1077.96 3032.44 1058.1 3024.17C1129.25 3053.73 1183.13 3065.62 1242.04 3079.63C1278.95 3088.4 1308.92 3093 1374.6 3103.02C1406.37 3106.83 1448.74 3112.06 1480.65 3113.6C1559.99 3117.4 1568.28 3117.79 1642.89 3115.92C1709.44 3114.27 1803.43 3103.79 1871.5 3090.52C1922.72 3080.54 2008.46 3063.83 2131.79 3018.73C2209.15 2990.42 2287.63 2953.83 2365.1 2909.96C2497.6 2834.94 2619.25 2739.83 2726.58 2627.33C2803.56 2546.65 2858.56 2469.38 2859.15 2468.58C2859.15 2468.58 2517.21 2724.44 2102.4 2879.71C1724.68 3021.08 1278.33 3064.21 1134.27 3044.98Z" />
		<path id="Path 7" class="shp6" d="M2852.31 1824.93C2757.79 1897.27 2642.46 1972.97 2507.65 2049.75C1849.97 2424.27 976.9 2682.5 557.58 2626.52C461.42 2613.69 397.47 2585.44 363.96 2544.98C392.01 2578.33 450.38 2647.75 543.19 2728.46C634.41 2807.77 711.75 2856.35 748.91 2879.71C780.08 2898.94 823.85 2912.81 880.71 2920.4C1241.25 2968.5 1992.03 2746.44 2557.54 2424.42C2694.48 2346.42 2807.63 2269.81 2895.94 2197.67L3047.87 1928.47L2852.31 1824.93Z" />
		<path id="Path 8" class="shp7" d="M2446.71 1834.47C2606.71 1743.35 2739.48 1653.83 2844.44 1569.19L2939.29 1270.3L2667.94 1196.68C2566.35 1276.43 2440.08 1360.34 2290.4 1445.58C1609.34 1833.42 705.22 2100.83 271.01 2042.88C135.56 2024.8 61.85 1977.18 45.19 1908.47C45.19 1908.74 61.9 1982.17 93.96 2071.46C102.55 2095.37 117.4 2132.69 118.8 2136.08C120.14 2139.27 121.97 2143.52 123.23 2146.73C123.26 2146.85 131.57 2166.46 132.31 2167.92C133.86 2171.02 135.55 2175.29 136.95 2178.42C140.03 2185.42 143.23 2192.38 146.41 2199.31C151.24 2209.65 156.48 2219.81 161.18 2230.19L161.2 2230.19C161.29 2230.48 179.47 2269.02 214.53 2329.79C244.32 2381.08 314.35 2416.69 427.3 2431.75C861.51 2489.71 1765.61 2222.29 2446.71 1834.47Z" />
		<path id="Path 9" class="shp8" d="M2175.48 1223.11C2316.08 1143.04 2435.37 1064.14 2532.06 989.02L2526.85 672.55L2202.08 632.01C2122.12 692.61 2025.51 755.87 1912.82 820.04C1347.28 1142.09 596.53 1364.13 235.97 1316C85.63 1295.96 26.87 1232.07 50.49 1141.04C-13.01 1382.78 -0.1 1583.59 4.17 1649.59C9.78 1726.98 81.52 1780.68 225.4 1799.89C644.7 1855.86 1517.79 1597.61 2175.48 1223.11Z" />
		<path id="Path 10" class="shp9" d="M313.6 1002.83C615.85 1043.19 1245.19 857.05 1719.29 587.07C1813.43 533.48 1894.35 480.6 1961.24 429.94L1925.15 154.94L1577.76 171.52L1577.76 171.2C1492.25 258.33 1252.2 381.96 1096.41 444.54C788.19 568.38 460.02 605.92 312.93 591.42C310.3 594.98 307.58 598.66 305.45 601.63C284.24 631.64 256.4 672 237.17 703.31C212.99 742.68 212.99 742.68 173.69 816.2C124.01 913.61 166.56 983.22 313.6 1002.83Z" />
		<path id="Path 11" fill-rule="evenodd" class="shp10" d="M4335.94 657.51L4422.92 657.51L4417.48 1523.4L4613.21 1523.4L4613.21 1609.02L4115.71 1609.02L4115.71 1523.4L4306.02 1523.4L4311.46 770.33L4308.73 770.33C4306.02 774.41 4296.5 783.93 4285.63 790.73L4070.88 929.4L4020.58 851.91L4335.94 657.51ZM4900.02 1122.38C4781.77 1069.39 4702.92 1001.43 4702.92 880.44C4702.92 747.2 4802.15 641.19 4991.08 641.19C5140.63 641.19 5283.33 705.07 5283.33 862.76C5283.33 985.11 5205.85 1053.04 5084.9 1112.9C5201.79 1175.43 5311.9 1220.26 5311.9 1372.51C5311.9 1534.25 5192.27 1625.34 4991.08 1625.34C4772.25 1625.34 4670.29 1527.46 4670.29 1384.74C4670.29 1240.66 4773.6 1175.43 4900.02 1122.38ZM4987.02 1168.61C4901.4 1210.74 4787.21 1265.14 4787.21 1377.91C4787.21 1485.32 4872.83 1532.91 4991.08 1532.91C5151.5 1532.91 5200.42 1440.44 5200.42 1368.46C5200.42 1331.71 5186.81 1275.97 5083.52 1220.26L4987.02 1168.61ZM4995.19 1068.04L5080.81 1019.08C5141.98 983.74 5171.9 937.53 5171.9 873.66C5171.9 768.98 5078.08 733.63 4991.08 733.63C4902.75 733.63 4814.4 778.5 4814.4 880.44C4814.4 959.3 4872.83 1002.81 4924.5 1029.94L4995.19 1068.04ZM6051.33 1116.95C6051.33 1342.6 5976.58 1625.34 5719.67 1625.34C5454.6 1625.34 5388 1350.78 5388 1149.58C5388 923.93 5462.77 641.19 5719.67 641.19C5984.73 641.19 6051.33 915.79 6051.33 1116.95ZM5504.9 1133.3C5504.9 1271.9 5534.79 1532.91 5719.67 1532.91C5904.52 1532.91 5934.44 1271.9 5934.44 1133.3C5934.44 994.63 5904.52 733.63 5719.67 733.63C5534.79 733.63 5504.9 994.63 5504.9 1133.3ZM6117.81 1549.18L6226.58 1549.18L6232 717.35L6117.81 717.35L6117.81 657.51L6533.77 657.51C6846.4 657.51 7013.58 828.81 7013.58 1129.2C7013.58 1421.44 6846.4 1609.02 6514.73 1609.02L6117.81 1609.02L6117.81 1549.18ZM6506.56 1549.18C6773 1549.18 6937.46 1396.94 6937.46 1127.83C6937.46 853.24 6775.71 717.35 6514.73 717.35L6308.12 717.35L6302.69 1549.18L6506.56 1549.18ZM7664.52 1572.29C7621.04 1598.14 7529.94 1625.34 7441.58 1625.34C7214.63 1625.34 7099.08 1479.92 7099.08 1247.44C7099.08 1054.44 7207.83 894.04 7406.27 894.04C7635.98 894.04 7698.52 1082.99 7698.52 1252.87L7175.21 1252.87C7177.94 1451.34 7268.96 1560.08 7452.48 1560.08C7535.4 1560.08 7608.79 1532.91 7667.25 1501.65L7664.52 1572.29ZM7622.37 1193.08C7622.37 1068.04 7554.42 959.3 7402.19 959.3C7229.56 959.3 7175.21 1110.17 7175.21 1193.08L7622.37 1193.08ZM8421.4 975.6L8357.5 975.6C8320.83 975.6 8280.04 970.13 8244.69 968.78L8241.98 971.53C8277.31 995.99 8324.87 1053.04 8324.87 1153.68C8324.87 1288.2 8231.1 1407.84 8065.27 1407.84C7952.46 1407.84 7899.44 1447.25 7899.44 1485.32C7899.44 1522.05 7941.58 1538.33 8013.6 1550.56L8239.27 1591.38C8324.87 1606.31 8407.81 1632.14 8407.81 1749.01C8407.81 1845.52 8328.98 1966.49 8073.42 1966.49C7892.65 1966.49 7752.65 1903.98 7752.65 1777.59C7752.65 1689.22 7840.98 1614.42 7938.85 1602.24L7938.85 1599.49C7892.65 1588.64 7828.77 1562.81 7828.77 1494.84C7828.77 1424.15 7898.06 1396.94 7953.79 1390.19L7953.79 1387.44C7888.54 1369.81 7775.75 1316.75 7775.75 1156.4C7775.75 1010.91 7880.4 894.04 8046.25 894.04C8103.35 894.04 8135.96 903.55 8164.5 915.79L8421.4 915.79L8421.4 975.6ZM8010.92 1617.17C7949.73 1628.04 7823.31 1670.17 7823.31 1769.41C7823.31 1836 7910.31 1906.68 8077.52 1906.68C8202.56 1906.68 8337.13 1864.55 8337.13 1754.46C8337.13 1682.41 8286.85 1664.75 8209.33 1647.09L8010.92 1617.17ZM8054.4 1348.05C8178.1 1348.05 8254.23 1269.2 8254.23 1152.33C8254.23 1046.29 8178.1 959.3 8046.25 959.3C7933.44 959.3 7846.42 1032.69 7846.42 1150.93C7846.42 1251.52 7913.02 1348.05 8054.4 1348.05ZM8505.9 1549.18L8617.37 1549.18L8622.79 970.13L8490.96 970.13L8490.96 910.37L8696.19 910.37C8696.19 975.6 8690.75 1059.87 8685.33 1134.65L8688.02 1134.65C8719.29 1015.01 8795.4 894.04 8921.83 894.04C8965.33 894.04 8992.52 902.2 9019.73 909L9008.81 976.95C8983 966.05 8958.54 959.3 8923.19 959.3C8800.87 959.3 8693.48 1111.54 8690.75 1308.65L8688.02 1549.18L8818.52 1549.18L8818.52 1609.02L8505.9 1609.02L8505.9 1549.18ZM9605.54 1572.29C9562.06 1598.14 9470.98 1625.34 9382.63 1625.34C9155.63 1625.34 9040.1 1479.92 9040.1 1247.44C9040.1 1054.44 9148.83 894.04 9347.29 894.04C9577.02 894.04 9639.56 1082.99 9639.56 1252.87L9116.23 1252.87C9118.94 1451.34 9210 1560.08 9393.5 1560.08C9476.42 1560.08 9549.81 1532.91 9608.27 1501.65L9605.54 1572.29ZM9563.42 1193.08C9563.42 1068.04 9495.44 959.3 9343.19 959.3C9170.56 959.3 9116.23 1110.17 9116.23 1193.08L9563.42 1193.08ZM10287.75 1572.29C10244.27 1598.14 10153.19 1625.34 10064.83 1625.34C9837.83 1625.34 9722.31 1479.92 9722.31 1247.44C9722.31 1054.44 9831.04 894.04 10029.52 894.04C10259.23 894.04 10321.75 1082.99 10321.75 1252.87L9798.44 1252.87C9801.17 1451.34 9892.21 1560.08 10075.73 1560.08C10158.67 1560.08 10232.02 1532.91 10290.5 1501.65L10287.75 1572.29ZM10245.62 1193.08C10245.62 1068.04 10177.67 959.3 10025.42 959.3C9852.77 959.3 9798.44 1110.17 9798.44 1193.08L10245.62 1193.08ZM10479.29 1410.58L10482.04 1528.8C10511.92 1547.86 10582.6 1565.54 10651.92 1565.54C10786.5 1565.54 10834.08 1488.02 10834.08 1425.51C10834.08 1365.71 10805.52 1324.93 10714.46 1303.18L10594.85 1274.62C10480.65 1247.44 10409.96 1193.08 10409.96 1089.77C10409.96 974.23 10507.85 894.04 10653.27 894.04C10740.27 894.04 10806.92 911.72 10865.35 937.53L10868.04 1096.57L10802.81 1096.57L10800.08 983.74C10770.19 967.43 10725.35 953.85 10657.38 953.85C10547.27 953.85 10486.1 1004.16 10486.1 1082.99C10486.1 1152.33 10522.79 1193.08 10604.35 1210.74L10733.5 1239.31C10854.48 1265.14 10910.21 1319.5 10910.21 1416.01C10910.21 1558.71 10804.17 1625.34 10646.5 1625.34C10547.27 1625.34 10465.69 1603.59 10418.17 1579.11L10412.71 1410.58L10479.29 1410.58Z" />
		<path id="Path 12" fill-rule="evenodd" class="shp10" d="M4367.48 2411.9C4333.31 2458.85 4286.37 2477.71 4233.31 2477.71C4123.12 2477.71 4046.6 2398.12 4046.6 2287.94C4046.6 2177.73 4123.12 2098.15 4233.31 2098.15C4282.29 2098.15 4326.17 2114.48 4357.81 2154.77L4330.25 2177.73C4307.81 2144.06 4269.54 2128.75 4233.31 2128.75C4138.94 2128.75 4080.27 2198.12 4080.27 2287.94C4080.27 2377.71 4138.94 2447.1 4233.31 2447.1C4269.54 2447.1 4314.44 2429.75 4339.96 2390.98L4367.48 2411.9ZM5000.44 2098.15C5110.65 2098.15 5187.17 2177.73 5187.17 2287.94C5187.17 2398.12 5110.65 2477.71 5000.44 2477.71C4890.25 2477.71 4813.71 2398.12 4813.71 2287.94C4813.71 2177.73 4890.25 2098.15 5000.44 2098.15ZM5000.44 2447.1C5094.81 2447.1 5153.5 2377.71 5153.5 2287.94C5153.5 2198.12 5094.81 2128.75 5000.44 2128.75C4906.04 2128.75 4847.4 2198.12 4847.4 2287.94C4847.4 2377.71 4906.04 2447.1 5000.44 2447.1ZM5670.6 2107.31L5713.98 2107.31L5933.85 2423.63L5934.87 2423.63L5934.87 2107.31L5968.56 2107.31L5968.56 2468.52L5925.19 2468.52L5705.31 2152.21L5704.29 2152.21L5704.29 2468.52L5670.6 2468.52L5670.6 2107.31ZM6485.17 2401.69C6503.02 2431.81 6532.1 2447.1 6567.81 2447.1C6613.23 2447.1 6648.94 2419.54 6648.94 2376.19C6648.94 2275.17 6462.73 2334.33 6462.73 2197.12C6462.73 2132.83 6517.81 2098.15 6578.52 2098.15C6617.81 2098.15 6652.5 2111.42 6677 2143.54L6647.92 2164.46C6631.08 2141 6608.62 2128.75 6577.52 2128.75C6534.15 2128.75 6496.4 2151.21 6496.4 2197.12C6496.4 2305.79 6682.6 2240.5 6682.6 2376.19C6682.6 2441.48 6629.04 2477.71 6570.35 2477.71C6522.92 2477.71 6481.08 2462.4 6453.04 2423.12L6485.17 2401.69ZM7423.73 2330.27C7423.73 2407.29 7390.56 2477.71 7292.08 2477.71C7193.65 2477.71 7160.48 2407.29 7160.48 2330.27L7160.48 2107.31L7194.15 2107.31L7194.15 2321.6C7194.15 2373.12 7207.92 2447.1 7292.08 2447.1C7376.27 2447.1 7390.04 2373.12 7390.04 2321.6L7390.04 2107.31L7423.73 2107.31L7423.73 2330.27ZM7924.04 2107.31L7957.71 2107.31L7957.71 2437.94L8126.06 2437.94L8126.06 2468.52L7924.04 2468.52L7924.04 2107.31ZM8620.27 2137.94L8496.81 2137.94L8496.81 2107.31L8777.4 2107.31L8777.4 2137.94L8653.94 2137.94L8653.94 2468.52L8620.27 2468.52L8620.27 2137.94ZM9241 2107.31L9274.67 2107.31L9274.67 2468.52L9241 2468.52L9241 2107.31ZM9781.65 2107.31L9824.98 2107.31L10044.88 2423.63L10045.92 2423.63L10045.92 2107.31L10079.58 2107.31L10079.58 2468.52L10036.21 2468.52L9816.31 2152.21L9815.31 2152.21L9815.31 2468.52L9781.65 2468.52L9781.65 2107.31ZM10884.44 2445.06C10842.6 2469.04 10796.69 2477.71 10749.75 2477.71C10639.56 2477.71 10563.02 2398.12 10563.02 2287.94C10563.02 2177.73 10639.56 2098.15 10749.75 2098.15C10803.33 2098.15 10846.67 2114.48 10879.85 2148.15L10855.38 2173.65C10833.42 2147.12 10789.04 2128.75 10749.75 2128.75C10655.38 2128.75 10596.71 2198.12 10596.71 2287.94C10596.71 2377.71 10655.38 2447.1 10749.75 2447.1C10788.54 2447.1 10823.21 2442 10850.77 2425.69L10850.77 2304.25L10764.04 2304.25L10764.04 2273.63L10884.44 2273.63L10884.44 2445.06Z" />
	</g>
</svg>